# Blender v2.79 (sub 0) OBJ File: ''
# www.blender.org
mtllib ship.mtl
o Cube
v 0.000000 -1.000000 1.750914
v 0.723607 -0.447220 2.276639
v -0.276388 -0.447220 2.601563
v -0.894426 -0.447216 1.750914
v -0.276388 -0.447220 0.900265
v 0.723607 -0.447220 1.225189
v 0.276388 0.447220 2.601563
v -0.723607 0.447220 2.276639
v -0.723607 0.447220 1.225189
v 0.276388 0.447220 0.900265
v 0.894426 0.447216 1.750914
v 0.000000 1.000000 1.750914
v -0.162456 -0.850654 2.250909
v 0.425323 -0.850654 2.059926
v 0.262869 -0.525738 2.559926
v 0.850648 -0.525736 1.750914
v 0.425323 -0.850654 1.441903
v -0.525730 -0.850652 1.750914
v -0.688189 -0.525736 2.250911
v -0.162456 -0.850654 1.250919
v -0.688189 -0.525736 1.250917
v 0.262869 -0.525738 0.941902
v 0.951058 0.000000 2.059927
v 0.951058 0.000000 1.441901
v 0.000000 0.000000 2.750914
v 0.587786 0.000000 2.559931
v -0.951058 0.000000 2.059927
v -0.587786 0.000000 2.559931
v -0.587786 0.000000 0.941897
v -0.951058 0.000000 1.441901
v 0.587786 0.000000 0.941897
v 0.688189 0.525736 2.250911
v -0.262869 0.525738 2.559926
v -0.850648 0.525736 1.750914
v -0.262869 0.525738 0.941902
v 0.688189 0.525736 1.250917
v 0.162456 0.850654 2.250909
v 0.525730 0.850652 1.750914
v -0.425323 0.850654 2.059926
v -0.425323 0.850654 1.441903
v 0.162456 0.850654 1.250919
v 1.000000 -1.000000 -2.821381
v 1.000000 -1.000000 -0.821381
v -1.000000 -1.000000 -0.821381
v -1.000000 -1.000000 -2.821382
v 1.000000 1.000000 -2.821381
v 0.999999 1.000000 -0.821380
v -1.000000 1.000000 -0.821381
v -1.000000 1.000000 -2.821381
v 0.250000 0.250000 -0.821381
v 0.250000 -0.250000 -0.821381
v -0.250000 -0.250000 -0.821381
v -0.250000 0.250000 -0.821381
v 0.250000 0.000000 0.832144
v 0.125000 -0.250000 0.841733
v 0.250000 -0.250000 0.882348
v -0.154503 -0.250000 0.834403
v -0.250000 -0.250000 0.865431
v -0.250000 0.000000 0.832144
v 0.250000 0.250000 0.865431
v 0.154503 0.250000 0.834403
v -0.250000 0.250000 0.882348
v -0.125000 0.250000 0.841733
vn 0.1024 -0.9435 0.3151
vn 0.7002 -0.6617 0.2680
vn -0.2680 -0.9435 0.1947
vn -0.2680 -0.9435 -0.1947
vn 0.1024 -0.9435 -0.3151
vn 0.9050 -0.3304 0.2680
vn 0.0247 -0.3304 0.9435
vn -0.8897 -0.3304 0.3151
vn -0.5746 -0.3304 -0.7488
vn 0.5346 -0.3304 -0.7779
vn 0.8026 -0.1256 0.5831
vn -0.3066 -0.1256 0.9435
vn -0.9921 -0.1256 0.0000
vn -0.3066 -0.1256 -0.9435
vn 0.8026 -0.1256 -0.5831
vn 0.4089 0.6617 0.6284
vn -0.4713 0.6617 0.5831
vn -0.7002 0.6617 -0.2680
vn 0.0385 0.6617 -0.7488
vn 0.7240 0.6617 -0.1947
vn 0.2680 0.9435 -0.1947
vn 0.4911 0.7947 -0.3568
vn 0.4089 0.6617 -0.6284
vn -0.1024 0.9435 -0.3151
vn -0.1876 0.7947 -0.5773
vn -0.4713 0.6617 -0.5831
vn -0.3313 0.9435 0.0000
vn -0.6071 0.7947 0.0000
vn -0.7002 0.6617 0.2680
vn -0.1024 0.9435 0.3151
vn -0.1876 0.7947 0.5773
vn 0.0385 0.6617 0.7488
vn 0.2680 0.9435 0.1947
vn 0.4911 0.7947 0.3568
vn 0.7240 0.6617 0.1947
vn 0.8897 0.3304 -0.3151
vn 0.7947 0.1876 -0.5773
vn 0.5746 0.3304 -0.7488
vn -0.5346 0.3304 -0.7779
vn -0.9050 0.3304 -0.2680
vn -0.9822 0.1876 0.0000
vn -0.9050 0.3304 0.2680
vn -0.5346 0.3304 0.7779
vn -0.3035 0.1876 0.9342
vn -0.0247 0.3304 0.9435
vn 0.5746 0.3304 0.7488
vn 0.7947 0.1876 0.5773
vn 0.8897 0.3304 0.3151
vn 0.3066 0.1256 -0.9435
vn 0.3035 -0.1876 -0.9342
vn 0.0247 -0.3304 -0.9435
vn -0.8026 0.1256 -0.5831
vn -0.7947 -0.1876 -0.5773
vn -0.8897 -0.3304 -0.3151
vn -0.8026 0.1256 0.5831
vn -0.7947 -0.1876 0.5773
vn -0.5746 -0.3304 0.7488
vn 0.3066 0.1256 0.9435
vn 0.3035 -0.1876 0.9342
vn 0.5346 -0.3304 0.7779
vn 0.9921 0.1256 0.0000
vn 0.9822 -0.1876 0.0000
vn 0.9050 -0.3304 -0.2680
vn 0.4713 -0.6617 -0.5831
vn 0.1876 -0.7947 -0.5773
vn -0.0385 -0.6617 -0.7488
vn -0.4089 -0.6617 -0.6284
vn -0.4911 -0.7947 -0.3568
vn -0.7240 -0.6617 -0.1947
vn -0.7240 -0.6617 0.1947
vn -0.4911 -0.7947 0.3568
vn -0.4089 -0.6617 0.6284
vn 0.7002 -0.6617 -0.2680
vn 0.6071 -0.7947 0.0000
vn 0.3313 -0.9435 0.0000
vn -0.0385 -0.6617 0.7488
vn 0.1876 -0.7947 0.5773
vn 0.4713 -0.6617 0.5831
vn 0.0000 -1.0000 0.0000
vn 0.0000 1.0000 0.0000
vn 1.0000 -0.0000 0.0000
vn 0.0000 0.0000 1.0000
vn -1.0000 -0.0000 -0.0000
vn 0.0000 0.0000 -1.0000
vn -0.0247 0.3304 -0.9435
vn -0.3035 0.1876 -0.9342
usemtl Material
s off
f 1//1 14//1 13//1
f 2//2 14//2 16//2
f 1//3 13//3 18//3
f 1//4 18//4 20//4
f 1//5 20//5 17//5
f 2//6 16//6 23//6
f 3//7 15//7 25//7
f 4//8 19//8 27//8
f 5//9 21//9 29//9
f 6//10 22//10 31//10
f 2//11 23//11 26//11
f 3//12 25//12 28//12
f 4//13 27//13 30//13
f 58//14 57//14 5//14
f 6//15 31//15 24//15
f 7//16 32//16 37//16
f 8//17 33//17 39//17
f 9//18 34//18 40//18
f 10//19 35//19 41//19
f 11//20 36//20 38//20
f 38//21 41//21 12//21
f 38//22 36//22 41//22
f 36//23 10//23 41//23
f 41//24 40//24 12//24
f 41//25 35//25 40//25
f 35//26 9//26 40//26
f 40//27 39//27 12//27
f 40//28 34//28 39//28
f 34//29 8//29 39//29
f 39//30 37//30 12//30
f 39//31 33//31 37//31
f 33//32 7//32 37//32
f 37//33 38//33 12//33
f 37//34 32//34 38//34
f 32//35 11//35 38//35
f 24//36 36//36 11//36
f 24//37 31//37 36//37
f 31//38 10//38 36//38
f 29//39 9//39 35//39
f 30//40 34//40 9//40
f 30//41 27//41 34//41
f 27//42 8//42 34//42
f 28//43 33//43 8//43
f 28//44 25//44 33//44
f 25//45 7//45 33//45
f 26//46 32//46 7//46
f 26//47 23//47 32//47
f 23//48 11//48 32//48
f 60//49 61//49 10//49
f 22//50 55//50 56//50
f 5//51 55//51 22//51
f 29//52 30//52 9//52
f 29//53 21//53 30//53
f 21//54 4//54 30//54
f 27//55 28//55 8//55
f 27//56 19//56 28//56
f 19//57 3//57 28//57
f 25//58 26//58 7//58
f 25//59 15//59 26//59
f 15//60 2//60 26//60
f 23//61 24//61 11//61
f 23//62 16//62 24//62
f 16//63 6//63 24//63
f 17//64 22//64 6//64
f 17//65 20//65 22//65
f 20//66 5//66 22//66
f 20//67 21//67 5//67
f 20//68 18//68 21//68
f 18//69 4//69 21//69
f 18//70 19//70 4//70
f 18//71 13//71 19//71
f 13//72 3//72 19//72
f 16//73 17//73 6//73
f 16//74 14//74 17//74
f 14//75 1//75 17//75
f 13//76 15//76 3//76
f 13//77 14//77 15//77
f 14//78 2//78 15//78
f 43//79 45//79 42//79
f 49//80 47//80 46//80
f 46//81 43//81 42//81
f 43//82 50//82 51//82
f 44//83 49//83 45//83
f 42//84 49//84 46//84
f 50//81 60//81 54//81
f 53//82 47//82 48//82
f 51//79 55//79 57//79
f 53//80 63//80 61//80
f 63//85 10//85 61//85
f 59//83 53//83 52//83
f 62//86 29//86 35//86
f 5//14 29//14 58//14
f 29//14 59//14 58//14
f 10//49 31//49 60//49
f 31//49 54//49 60//49
f 54//50 31//50 56//50
f 31//50 22//50 56//50
f 5//51 57//51 55//51
f 43//79 44//79 45//79
f 49//80 48//80 47//80
f 46//81 47//81 43//81
f 43//82 47//82 50//82
f 51//82 52//82 43//82
f 52//82 44//82 43//82
f 44//83 48//83 49//83
f 42//84 45//84 49//84
f 56//81 51//81 54//81
f 51//81 50//81 54//81
f 48//82 44//82 52//82
f 53//82 50//82 47//82
f 48//82 52//82 53//82
f 58//79 52//79 57//79
f 52//79 51//79 57//79
f 51//79 56//79 55//79
f 60//80 50//80 61//80
f 50//80 53//80 61//80
f 53//80 62//80 63//80
f 63//85 35//85 10//85
f 52//83 58//83 59//83
f 59//83 62//83 53//83
f 35//86 63//86 62//86
f 62//86 59//86 29//86
